<?xml version="1.0" standalone="no"?>
<!DOCTYPE svg PUBLIC "-//W3C//DTD SVG 20010904//EN"
 "http://www.w3.org/TR/2001/REC-SVG-20010904/DTD/svg10.dtd">
<svg version="1.0" xmlns="http://www.w3.org/2000/svg"
 width="502.000000pt" height="497.000000pt" viewBox="0 0 502.000000 497.000000"
 preserveAspectRatio="xMidYMid meet">

<g transform="translate(0.000000,497.000000) scale(0.100000,-0.100000)"
fill="#000000" stroke="none">
<path d="M2279 4662 c-24 -16 -75 -60 -114 -98 -65 -64 -84 -91 -99 -136 -5
-16 -8 -16 -42 -2 -44 19 -184 32 -184 17 0 -5 34 -15 76 -21 237 -37 401
-242 535 -666 l31 -99 -16 -151 c-23 -218 -21 -556 4 -706 10 -63 26 -158 35
-209 18 -106 16 -143 -5 -96 -7 17 -12 53 -11 81 4 69 -12 121 -49 167 -25 30
-38 37 -66 37 -30 0 -37 -5 -48 -31 l-13 -32 -26 69 c-33 89 -102 308 -158
501 -24 84 -47 153 -51 153 -4 0 -4 -10 1 -23 5 -12 21 -72 36 -132 42 -173
164 -564 230 -740 18 -49 36 -101 40 -115 l7 -25 -17 22 c-45 62 -190 393
-261 598 -68 193 -147 456 -170 565 -4 19 -9 30 -11 23 -13 -37 105 -463 194
-696 26 -71 94 -239 103 -256 16 -32 80 -172 80 -176 0 -3 -6 -2 -14 1 -8 3
-24 -4 -35 -15 l-21 -21 -37 57 c-62 97 -146 273 -183 382 -19 57 -36 98 -38
92 -8 -23 69 -238 126 -351 67 -132 136 -239 256 -395 46 -60 83 -111 82 -113
-2 -1 -24 6 -48 17 -38 16 -45 23 -42 43 3 19 -15 37 -112 113 -360 280 -604
697 -683 1168 -6 37 -17 97 -23 135 -7 37 -13 126 -13 197 1 143 -1 136 96
355 34 78 43 110 48 181 9 120 31 143 91 93 33 -28 48 -27 32 3 -29 53 -86 74
-122 45 -22 -18 -25 -31 -31 -113 -5 -76 -13 -111 -41 -179 -20 -46 -40 -86
-46 -88 -6 -2 -18 22 -27 54 -28 98 -28 55 2 -89 5 -27 -13 -87 -27 -87 -12 0
-82 158 -101 229 -17 62 -18 64 -18 26 -1 -48 26 -131 75 -228 34 -66 35 -73
29 -142 -7 -71 11 -264 36 -395 20 -103 31 -155 40 -184 12 -38 12 -63 0 -51
-17 20 -141 366 -162 455 -8 32 -15 47 -17 36 -6 -28 40 -181 137 -456 17 -46
29 -85 28 -87 -2 -1 -37 64 -79 145 -154 298 -180 397 -181 702 -1 185 1 210
20 262 28 75 65 123 117 147 54 26 111 27 161 1 47 -24 45 -24 45 -6 0 8 -16
24 -36 37 -80 49 -204 16 -274 -72 -77 -97 -96 -225 -74 -495 13 -167 23 -240
39 -289 33 -99 185 -413 248 -512 15 -24 27 -45 27 -48 0 -3 -21 -5 -47 -5
-44 0 -52 4 -93 46 -129 132 -320 241 -478 273 -126 26 -260 1 -326 -61 -11
-10 -59 -37 -106 -61 -53 -26 -104 -61 -135 -92 -47 -46 -54 -60 -94 -182 -35
-106 -43 -141 -38 -175 8 -58 28 -98 50 -98 21 0 21 9 1 60 -19 48 -15 88 20
195 46 136 72 180 131 220 61 40 77 45 48 13 -30 -34 -42 -60 -64 -146 -11
-42 -35 -108 -53 -148 -39 -83 -49 -129 -47 -204 2 -65 20 -181 31 -195 4 -5
10 -21 13 -35 18 -75 139 -210 189 -210 28 0 21 26 -13 51 -32 23 -119 133
-119 151 0 6 10 4 23 -5 39 -25 260 -95 400 -126 147 -33 188 -49 316 -119 87
-47 166 -80 211 -89 14 -2 -6 9 -45 25 -38 16 -97 45 -130 65 -101 62 -196
104 -275 121 -189 43 -220 51 -305 79 -49 16 -120 44 -156 63 -65 32 -66 34
-83 92 -9 34 -16 95 -16 145 0 92 5 100 48 78 9 -5 96 -37 192 -71 248 -87
312 -110 335 -120 11 -5 49 -19 85 -31 36 -12 124 -44 195 -71 289 -109 533
-189 575 -188 8 1 -19 12 -60 25 -41 14 -84 29 -95 34 -11 5 -45 18 -75 29
-30 11 -116 43 -190 70 -74 28 -155 57 -180 66 -25 8 -90 32 -145 52 -55 20
-154 56 -220 79 -66 24 -165 60 -220 81 -55 20 -128 46 -162 57 -35 12 -63 26
-63 32 0 6 11 33 24 61 13 27 29 74 35 104 29 136 43 171 85 206 22 19 33 34
25 34 -19 0 59 52 101 67 76 27 195 38 276 24 188 -31 307 -110 609 -402 66
-64 154 -141 197 -172 42 -31 87 -71 99 -89 110 -157 330 -380 442 -449 18
-10 32 -24 32 -31 0 -7 37 -31 81 -53 111 -55 134 -75 98 -89 -16 -6 -44 1
-229 61 -98 32 -157 56 -273 110 -18 9 -35 13 -39 10 -9 -9 252 -132 350 -165
48 -16 90 -32 94 -36 3 -3 -30 -6 -75 -6 -76 0 -142 12 -220 40 -18 7 -36 10
-39 6 -8 -8 71 -41 137 -56 85 -20 88 -21 65 -30 -33 -14 -223 -11 -284 4
-176 43 -334 55 -487 39 -194 -21 -455 -27 -527 -13 -101 21 -165 57 -244 138
-77 77 -87 79 -52 9 49 -96 153 -164 298 -194 81 -16 297 -13 446 7 204 27
364 22 487 -15 l43 -13 -30 -6 c-244 -55 -388 -122 -640 -300 -55 -39 -109
-78 -120 -87 -11 -9 -62 -52 -114 -96 -52 -43 -96 -83 -98 -89 -2 -6 4 -14 13
-18 11 -4 49 22 122 82 344 285 554 409 811 476 88 23 115 27 174 21 l70 -7
-140 -68 c-189 -92 -279 -152 -355 -234 -35 -37 -111 -116 -169 -175 -109
-109 -154 -167 -183 -235 -25 -60 -12 -54 25 11 45 80 101 146 169 198 31 24
83 77 114 118 62 82 119 133 211 192 115 74 379 187 530 229 50 13 115 34 145
45 63 24 60 23 60 14 0 -5 -26 -16 -58 -27 -78 -26 -244 -105 -317 -151 -94
-60 -216 -190 -281 -303 -94 -160 -145 -230 -277 -380 -120 -137 -171 -214
-209 -312 -10 -25 -18 -56 -17 -70 0 -16 9 1 26 45 34 93 88 173 228 335 64
74 146 180 182 235 36 55 90 136 119 180 97 146 193 231 353 311 93 46 222 97
228 90 2 -2 -49 -55 -113 -117 -103 -101 -208 -218 -299 -334 -58 -75 -126
-175 -118 -175 4 0 17 15 29 33 51 78 241 295 383 435 85 83 159 152 164 152
13 0 1 -42 -39 -135 -56 -129 -124 -232 -221 -335 -35 -36 -48 -62 -69 -130
-38 -124 -105 -209 -262 -335 -31 -25 -118 -102 -149 -133 -32 -32 -29 -41 5
-10 15 14 38 34 52 46 182 147 261 218 291 258 41 56 89 153 89 182 0 23 38
80 96 145 99 110 186 269 240 436 4 12 9 10 26 -6 l21 -22 -32 -98 c-18 -54
-55 -158 -82 -231 -28 -74 -49 -138 -47 -143 8 -25 178 426 178 473 0 24 16
48 32 48 10 0 2 -127 -18 -275 -21 -155 -48 -245 -121 -405 -76 -165 -119
-310 -94 -310 6 0 13 6 16 13 2 6 12 41 24 77 11 36 45 119 77 185 87 185 114
267 145 440 14 77 16 75 40 -40 6 -27 14 -66 19 -85 19 -89 72 -276 81 -285 5
-5 9 -7 9 -4 0 14 -72 380 -81 409 -16 53 -24 306 -10 314 7 5 11 -3 11 -21 0
-29 42 -241 56 -278 33 -94 70 -154 138 -222 41 -40 79 -73 86 -73 7 0 -9 22
-37 48 -28 27 -67 73 -86 103 -39 59 -90 188 -101 258 l-7 44 35 -31 c51 -45
112 -85 201 -132 44 -23 82 -45 85 -49 3 -3 16 -15 29 -26 l24 -20 -11 21
c-12 23 -47 48 -172 122 -149 88 -210 156 -210 232 l0 33 53 -52 c91 -89 157
-126 327 -186 240 -84 438 -180 618 -300 122 -80 150 -95 80 -42 -205 156
-490 304 -728 377 -50 15 -126 54 -180 91 -62 43 -135 107 -129 114 2 2 36 -5
74 -16 156 -44 312 -68 565 -89 74 -6 185 -15 246 -20 142 -13 287 -12 344 1
25 5 90 29 145 52 88 36 109 41 178 41 84 0 100 14 47 41 -55 28 -111 18 -275
-50 -115 -48 -196 -53 -495 -31 -315 24 -428 37 -640 74 l-45 8 95 23 c345 84
713 195 1010 304 52 20 150 56 217 80 189 70 235 98 289 176 24 36 58 83 74
105 35 46 47 97 33 148 -8 30 -7 42 7 63 9 14 23 51 30 81 16 64 6 107 -25
112 -11 2 -25 10 -31 18 -9 11 -17 -2 -37 -62 -26 -74 -27 -94 -6 -94 13 0 39
63 39 95 0 28 12 32 30 10 10 -12 10 -25 -1 -63 -23 -85 -39 -104 -135 -171
-55 -37 -84 -73 -84 -101 0 -19 18 -9 91 50 40 33 77 60 82 60 16 0 19 -32 8
-71 -6 -21 -29 -59 -50 -83 -22 -25 -49 -63 -62 -85 -12 -23 -39 -52 -58 -65
-31 -21 -166 -77 -316 -132 -47 -17 -47 -17 95 81 56 39 114 80 128 93 l27 23
-35 -17 c-19 -9 -52 -28 -73 -41 -64 -40 -53 -19 22 43 78 66 94 96 34 65 -38
-19 -99 -68 -184 -148 -24 -23 -62 -55 -84 -72 -22 -17 -46 -36 -53 -42 -40
-34 -334 -149 -380 -149 -12 0 -10 6 10 27 14 16 52 64 85 108 33 44 79 97
102 118 22 20 36 37 29 37 -13 0 -121 -108 -198 -200 -60 -71 -103 -111 -132
-122 -13 -5 -6 8 21 40 21 26 67 92 101 147 74 118 116 172 185 239 28 27 40
43 26 36 -38 -20 -153 -140 -195 -205 -21 -33 -47 -72 -57 -87 -11 -15 -19
-31 -19 -35 0 -17 -130 -151 -157 -161 -30 -12 -119 -36 -298 -81 -301 -76
-321 -71 -147 34 110 66 216 140 177 122 -12 -5 -197 -111 -228 -131 -12 -7
-48 -27 -79 -44 -49 -26 -59 -29 -75 -17 -17 13 -17 14 3 37 12 13 35 49 53
81 18 31 37 57 42 57 5 0 9 7 9 16 0 8 23 39 50 68 28 29 50 58 50 64 0 7 5
12 11 12 7 0 35 26 63 57 28 31 86 95 128 142 43 46 75 87 72 90 -3 3 -41 -32
-84 -79 l-79 -85 -1 33 c0 37 -37 82 -68 82 -31 0 -84 -42 -114 -90 -35 -57
-47 -133 -25 -158 15 -16 14 -20 -18 -45 -26 -20 -41 -26 -60 -21 -29 7 -30
15 -10 53 28 56 125 304 120 309 -2 3 -12 -12 -21 -34 -91 -222 -139 -314
-164 -314 -27 0 -43 -25 -35 -59 5 -24 0 -40 -27 -78 -18 -26 -36 -52 -40 -57
-35 -52 16 172 56 244 13 25 45 95 71 155 25 61 53 124 61 142 8 17 14 34 14
37 0 3 14 35 30 71 17 36 30 73 30 83 -1 18 -21 -19 -59 -108 -13 -30 -34 -77
-47 -105 -12 -27 -29 -63 -36 -80 -12 -28 -13 -26 -18 51 -6 96 -27 134 -77
134 -42 0 -53 -25 -53 -118 0 -51 5 -96 13 -108 6 -12 17 -30 24 -41 10 -16 6
-29 -25 -81 -33 -56 -37 -60 -45 -40 -13 35 -11 720 2 843 19 171 45 316 82
459 11 38 17 71 15 73 -10 10 -57 -160 -82 -296 -40 -214 -48 -331 -47 -704 0
-203 -3 -363 -7 -355 -8 15 -63 242 -81 335 -18 98 -6 478 20 632 12 68 19
126 17 128 -3 3 -8 -12 -11 -33 -4 -22 -13 -73 -21 -114 -8 -41 -21 -122 -29
-180 l-15 -105 6 180 c6 212 32 481 65 675 35 205 93 335 190 426 58 54 103
78 189 103 l72 20 -18 -27 c-71 -107 -135 -244 -121 -258 2 -3 12 14 21 38 27
67 90 168 145 233 28 32 51 64 51 70 0 6 15 22 32 35 48 36 123 34 172 -4 21
-15 38 -26 40 -25 1 2 7 16 14 31 7 17 22 30 39 34 102 26 195 -177 164 -360
-16 -98 -59 -209 -116 -301 -34 -55 -75 -139 -75 -154 0 -21 22 -21 53 0 17
13 34 26 37 29 9 11 121 100 126 100 11 0 -31 -81 -88 -169 -66 -103 -171
-301 -164 -308 5 -5 19 17 70 110 21 37 71 118 112 179 40 61 79 129 85 152
14 53 32 66 93 66 77 0 122 -31 161 -108 32 -65 45 -70 45 -18 0 92 -122 176
-227 156 -50 -9 -130 -52 -185 -100 -23 -21 -44 -37 -45 -36 -2 1 22 46 51
100 79 143 111 248 111 366 0 112 -20 185 -68 256 -43 62 -95 90 -138 75 -31
-11 -69 -45 -69 -63 0 -5 -13 1 -30 13 -18 14 -49 24 -82 27 -48 4 -58 1 -103
-32 -89 -64 -132 -87 -200 -106 -37 -10 -86 -30 -109 -44 -41 -24 -121 -99
-138 -130 -14 -26 -25 -19 -33 21 -8 45 -55 119 -124 198 -30 33 -64 77 -78
98 -32 51 -60 77 -81 77 -10 0 -38 -13 -63 -28z m88 -48 c35 -46 132 -163 156
-189 64 -69 87 -194 52 -290 -19 -54 -40 -136 -63 -250 -6 -31 -10 -7 -15 110
-8 151 -30 332 -43 344 -4 3 -4 -23 -1 -59 12 -120 29 -410 25 -421 -2 -5 -26
38 -53 98 -27 59 -60 126 -73 147 -19 30 -26 61 -33 140 -12 147 -20 196 -30
196 -5 0 -7 -10 -5 -22 12 -57 16 -208 6 -208 -5 0 -10 4 -10 9 0 14 -111 124
-152 151 -21 14 -38 31 -38 39 0 43 196 239 242 241 4 0 20 -16 35 -36z m-784
-1424 c3 -11 1 -18 -4 -14 -5 3 -9 12 -9 20 0 20 7 17 13 -6z m-4 -182 c109
-136 190 -243 186 -246 -5 -5 -81 65 -213 194 -24 24 -41 48 -37 53 9 15 52
14 64 -1z m850 -478 c6 0 13 -12 16 -27 11 -49 13 -57 43 -143 27 -79 49 -190
38 -190 -7 0 -65 123 -86 185 -10 28 -32 87 -49 133 l-31 83 29 -20 c16 -12
34 -21 40 -21z m-24 -287 c8 -20 14 -38 12 -39 -4 -4 -67 83 -67 92 0 18 43
-23 55 -53z m419 -11 c3 -5 -8 -22 -24 -37 -34 -32 -38 -27 -13 16 18 30 28
35 37 21z"/>
<path d="M3426 4398 c-7 -24 -27 -132 -41 -228 -17 -115 -35 -169 -92 -279
-49 -95 -54 -112 -19 -60 77 112 118 230 150 429 9 52 18 107 21 123 4 26 -12
39 -19 15z"/>
<path d="M1783 4354 c5 -19 15 -78 37 -219 12 -80 48 -216 60 -228 4 -5 4 9 0
30 -38 186 -73 404 -65 411 8 8 86 -30 119 -58 16 -13 42 -45 58 -69 31 -49
36 -48 14 2 -17 40 -73 100 -113 121 -17 8 -50 18 -73 22 -38 6 -42 5 -37 -12z"/>
<path d="M3277 4203 c-4 -7 -27 -87 -58 -198 -31 -108 -111 -335 -171 -480
-33 -80 -107 -299 -133 -395 -9 -36 -21 -78 -26 -94 -5 -16 -9 -38 -8 -50 0
-18 2 -18 9 4 4 14 18 61 30 105 24 89 121 356 181 500 79 191 147 385 167
480 21 98 25 156 9 128z"/>
<path d="M2220 4024 c0 -6 8 -22 18 -35 40 -55 74 -131 128 -289 19 -52 34
-73 34 -45 0 39 -30 131 -65 200 -36 73 -115 188 -115 169z"/>
<path d="M1593 3738 c7 -197 36 -339 112 -543 34 -93 107 -245 118 -245 4 0 6
3 4 8 -29 48 -94 210 -118 292 -59 198 -77 307 -95 553 -3 51 -10 87 -16 87
-8 0 -9 -48 -5 -152z"/>
<path d="M3855 3708 c-33 -49 -64 -84 -232 -257 -145 -150 -166 -176 -251
-306 -68 -106 -115 -176 -192 -290 -26 -38 -62 -96 -80 -127 -27 -49 -29 -59
-16 -64 10 -4 25 5 41 25 14 16 89 74 165 127 165 114 195 141 289 266 38 52
87 109 107 126 21 18 35 34 32 37 -9 9 -97 -75 -145 -139 -82 -106 -145 -166
-248 -235 -143 -94 -132 -89 -114 -60 9 13 36 58 61 99 97 159 112 178 172
209 69 37 91 54 176 135 92 87 145 129 220 169 82 45 234 97 289 99 41 1 47
-2 100 -59 41 -44 77 -69 136 -98 78 -37 135 -73 135 -84 0 -3 -32 -4 -71 -3
-95 5 -205 -20 -307 -70 -46 -22 -89 -46 -95 -52 -7 -6 -30 -24 -52 -41 -77
-57 -256 -249 -255 -273 0 -4 40 34 88 84 81 84 143 139 217 190 78 54 243
114 311 114 28 -1 25 -4 -46 -71 -41 -39 -113 -98 -160 -132 -203 -147 -263
-213 -346 -378 -80 -161 -156 -248 -255 -296 -32 -15 -58 -31 -59 -35 0 -12
49 12 122 58 80 51 136 120 197 241 92 181 143 238 353 390 135 97 224 175
233 202 5 16 24 19 167 24 89 4 166 3 171 -2 9 -9 -154 -179 -217 -227 -21
-16 -48 -37 -60 -47 -20 -17 -20 -17 14 -1 56 26 166 112 211 162 25 28 50 47
62 47 31 0 46 48 26 83 -21 38 -71 52 -137 41 -51 -10 -52 -10 -82 25 -19 21
-66 52 -118 77 -69 33 -101 56 -154 112 l-68 70 -62 -6 c-35 -3 -103 -19 -152
-36 -50 -17 -91 -30 -92 -28 -1 1 -18 23 -38 49 l-36 48 40 61 c35 54 49 89
36 89 -2 0 -16 -19 -31 -42z m-16 -232 c-2 -1 -29 -17 -59 -36 -30 -19 -95
-73 -145 -121 -98 -94 -205 -183 -211 -176 -12 12 111 168 233 295 l137 143
24 -51 c13 -28 23 -52 21 -54z"/>
<path d="M2581 3584 c0 -11 3 -14 6 -6 3 7 2 16 -1 19 -3 4 -6 -2 -5 -13z"/>
<path d="M2571 3544 c0 -11 3 -14 6 -6 3 7 2 16 -1 19 -3 4 -6 -2 -5 -13z"/>
<path d="M2882 3348 c-5 -7 -20 -51 -31 -98 -12 -47 -26 -101 -31 -121 -6 -20
-10 -45 -9 -55 0 -11 16 37 35 106 19 69 41 137 50 153 15 27 5 38 -14 15z"/>
<path d="M3990 3333 c-28 -19 -40 -33 -40 -48 0 -6 3 -6 8 1 15 21 57 44 84
44 15 0 30 5 33 10 10 17 -59 11 -85 -7z"/>
<path d="M812 3058 c2 -6 26 -19 53 -30 28 -10 59 -22 70 -27 51 -21 72 -30
105 -42 19 -7 104 -45 189 -86 85 -40 156 -71 158 -69 6 6 -145 90 -242 134
-151 68 -178 79 -230 97 -91 31 -107 35 -103 23z"/>
<path d="M995 3030 c3 -5 13 -10 22 -10 15 0 46 -12 141 -56 67 -31 58 -13
-11 23 -89 46 -168 69 -152 43z"/>
<path d="M2871 2943 c0 -12 -4 -30 -7 -40 -5 -17 -5 -17 6 0 6 10 9 28 7 40
-4 22 -4 22 -6 0z"/>
<path d="M3629 2763 c-19 -15 -65 -62 -104 -106 -165 -186 -244 -254 -358
-308 -37 -17 -66 -33 -64 -36 8 -8 119 47 188 93 92 61 393 364 377 379 -3 3
-20 -7 -39 -22z"/>
<path d="M1151 2635 c5 -4 53 -18 194 -55 63 -17 123 -34 210 -60 150 -45 205
-56 205 -42 0 17 -201 76 -415 122 -33 6 -80 18 -104 26 -42 13 -100 19 -90 9z"/>
<path d="M4335 1924 c-50 -27 -161 -131 -150 -142 3 -3 24 12 48 34 111 105
207 144 221 89 4 -15 16 -27 32 -31 35 -9 26 -24 -37 -59 -98 -54 -121 -75
-84 -75 18 0 118 61 153 93 30 28 29 57 -2 57 -26 0 -40 14 -41 40 0 27 -83
23 -140 -6z"/>
<path d="M4315 1787 c-11 -42 2 -90 36 -128 69 -76 59 -121 -55 -244 -35 -38
-46 -62 -57 -120 -14 -75 -30 -98 -87 -126 -26 -12 -41 -24 -34 -26 30 -11 -2
-54 -81 -106 -62 -42 -133 -58 -407 -92 -69 -9 -158 -20 -198 -26 -153 -19
-263 -7 -332 37 -46 29 -77 63 -139 157 -51 75 -64 87 -76 67 -11 -18 54 -138
106 -194 124 -136 216 -144 787 -65 202 28 325 89 376 188 9 16 28 36 43 43
40 19 70 70 77 132 7 56 19 77 89 154 48 53 81 125 73 158 -4 13 -26 46 -51
74 -29 32 -46 63 -50 87 -10 57 -12 60 -20 30z"/>
<path d="M3550 1781 c33 -26 57 -30 255 -41 94 -5 186 -12 205 -15 23 -4 30
-3 20 3 -19 11 -156 30 -272 37 -48 3 -97 9 -110 14 -13 4 -45 11 -73 15 l-50
7 25 -20z"/>
<path d="M4175 1496 c-8 -19 -15 -48 -15 -63 0 -15 -9 -43 -21 -62 -21 -36
-21 -45 3 -36 24 9 55 75 63 131 8 64 -9 81 -30 30z"/>
<path d="M3666 1391 c5 -5 27 -19 49 -31 94 -52 166 -112 195 -163 16 -29 30
-54 30 -57 0 -9 -100 -64 -163 -89 l-58 -24 -19 21 c-11 12 -39 32 -62 46 -45
26 -158 78 -158 73 0 -2 40 -28 90 -57 49 -29 97 -61 106 -71 15 -17 14 -18
-21 -25 -42 -8 -99 0 -158 22 -26 10 -95 19 -187 23 -162 8 -189 17 -264 82
-25 22 -68 72 -96 110 -28 39 -54 68 -57 65 -11 -11 63 -120 124 -182 96 -98
132 -112 313 -118 77 -3 121 -9 165 -26 50 -18 74 -21 140 -17 135 9 343 105
380 176 19 37 5 47 -28 21 l-25 -20 -22 45 c-12 25 -41 62 -65 83 -51 44 -251
152 -209 113z"/>
<path d="M3223 1285 c21 -21 107 -65 126 -65 9 0 -6 12 -33 26 -26 13 -58 31
-69 39 -28 19 -43 19 -24 0z"/>
<path d="M856 1219 c-35 -42 -34 -102 3 -205 20 -56 33 -115 41 -199 15 -151
50 -264 111 -364 78 -126 122 -161 205 -161 25 0 34 28 12 34 -7 2 -32 9 -55
15 -24 7 -43 17 -43 24 1 7 21 25 45 40 43 27 132 144 119 156 -3 3 -14 -5
-23 -19 -32 -49 -96 -112 -132 -130 -44 -23 -47 -21 -108 87 -59 105 -81 179
-96 333 -7 73 -22 129 -61 241 -34 98 -30 120 31 164 20 14 20 14 -2 15 -12 0
-33 -13 -47 -31z"/>
<path d="M2254 948 c-46 -90 -145 -194 -249 -264 -27 -19 -43 -34 -34 -34 22
0 155 93 211 147 44 43 88 112 103 161 10 34 -12 27 -31 -10z"/>
<path d="M2439 817 c-18 -115 -65 -231 -99 -242 -10 -3 -30 1 -44 10 -22 15
-27 15 -58 1 -18 -9 -54 -33 -80 -54 -71 -56 -139 -88 -273 -126 -174 -50
-246 -58 -412 -51 -98 5 -153 4 -153 -2 0 -6 24 -13 53 -16 28 -4 84 -11 122
-17 102 -17 224 -5 372 36 212 57 310 105 371 181 l30 38 26 -28 c14 -15 27
-27 30 -27 37 0 107 103 137 201 21 69 23 189 4 196 -6 2 -17 -41 -26 -100z"/>
<path d="M1372 690 c0 -19 2 -27 5 -17 2 9 2 25 0 35 -3 9 -5 1 -5 -18z"/>
</g>
</svg>
